<?xml version="1.0" encoding="UTF-8" standalone="no"?>
<!-- Created with Inkscape (http://www.inkscape.org/) -->

<svg
   width="169.72841mm"
   height="210.69177mm"
   viewBox="0 0 169.72841 210.69177"
   version="1.1"
   id="svg1"
   inkscape:version="1.3.2 (091e20e, 2023-11-25, custom)"
   sodipodi:docname="boksiproto_to2024huhti18uusi1.svg"
   xmlns:inkscape="http://www.inkscape.org/namespaces/inkscape"
   xmlns:sodipodi="http://sodipodi.sourceforge.net/DTD/sodipodi-0.dtd"
   xmlns="http://www.w3.org/2000/svg"
   xmlns:svg="http://www.w3.org/2000/svg">
  <sodipodi:namedview
     id="namedview1"
     pagecolor="#ffffff"
     bordercolor="#000000"
     borderopacity="0.25"
     inkscape:showpageshadow="2"
     inkscape:pageopacity="0.0"
     inkscape:pagecheckerboard="0"
     inkscape:deskcolor="#d1d1d1"
     inkscape:document-units="mm"
     inkscape:zoom="0.82024387"
     inkscape:cx="246.26822"
     inkscape:cy="293.20548"
     inkscape:window-width="1920"
     inkscape:window-height="974"
     inkscape:window-x="-11"
     inkscape:window-y="-11"
     inkscape:window-maximized="1"
     inkscape:current-layer="layer1"
     showguides="false"
     inkscape:pageshadow="2"
     showgrid="false" />
  <defs
     id="defs1">
    <rect
       x="119"
       y="358"
       width="87"
       height="60"
       id="rect49247" />
    <rect
       x="119"
       y="358"
       width="87"
       height="60"
       id="rect49247-9" />
    <rect
       x="119"
       y="358"
       width="87"
       height="60"
       id="rect49247-2" />
    <rect
       x="119"
       y="358"
       width="87"
       height="60"
       id="rect49247-4" />
    <rect
       x="119"
       y="358"
       width="87"
       height="60"
       id="rect49247-22" />
  </defs>
  <g
     inkscape:label="Taso 1"
     inkscape:groupmode="layer"
     id="layer1"
     transform="translate(-0.99,-44.505723)">
    <g
       id="panel3484" />
    <g
       id="panel9458"
       style="stroke:#000000;stroke-width:0.02;stroke-dasharray:none;stroke-opacity:1"
       transform="rotate(90,112.25625,172.93125)">
      <path
         style="fill:none;stroke:#000000;stroke-width:0.02;stroke-dasharray:none;stroke-opacity:1"
         d="m 91.9125,136.79583 h 5.71 v -3 h 5.1 v 3 h 5.66 v -3 h 5.1 v 3 h 5.66 v -3 h 5.1 v 3 h 5.66 v -3 h 5.1 v 3 h 5.66 v -3 h 5.1 v 3 h 5.66 v -3 h 5.1 v 3 h 5.66 v -3 h 5.1 v 3 h 5.66 v -3 h 5.1 v 3 h 5.66 v -3 h 5.1 v 3 h 5.71"
         id="path55" />
      <path
         style="fill:none;stroke:#000000;stroke-width:0.02;stroke-dasharray:none;stroke-opacity:1"
         d="m 194.5125,136.79583 v 2.207 h -3 v 4.9 h 3 v 5.257 h -3 v 4.9 h 3 v 5.257 h -3 v 4.9 h 3 v 5.258 h -3 v 4.9 h 3 v 5.257 h -3 v 4.9 h 3 v 5.257 h -3 v 4.9 h 3 v 2.207"
         id="path56" />
      <path
         style="fill:none;stroke:#000000;stroke-width:0.02;stroke-dasharray:none;stroke-opacity:1"
         d="m 194.5125,196.89583 h -5.71 v 3 h -5.1 v -3 h -5.66 v 3 h -5.1 v -3 h -5.66 v 3 h -5.1 v -3 h -5.66 v 3 h -5.1 v -3 h -5.66 v 3 h -5.1 v -3 h -5.66 v 3 h -5.1 v -3 h -5.66 v 3 h -5.1 v -3 h -5.66 v 3 h -5.1 v -3 h -5.66 v 3 h -5.1 v -3 h -5.71"
         id="path57" />
      <path
         style="fill:none;stroke:#000000;stroke-width:0.02;stroke-dasharray:none;stroke-opacity:1"
         d="m 91.9125,196.89583 v -2.207 h 3 v -4.9 h -3 v -5.257 h 3 v -4.9 h -3 v -5.257 h 3 v -4.9 h -3 v -5.258 h 3 v -4.9 h -3 v -5.257 h 3 v -4.9 h -3 v -5.257 h 3 v -4.9 h -3 v -2.207"
         id="path58" />
    </g>
    <g
       id="panel8355"
       style="stroke:#000000;stroke-width:0.02;stroke-dasharray:none;stroke-opacity:1">
      <path
         style="fill:none;stroke:#000000;stroke-width:0.02;stroke-dasharray:none;stroke-opacity:1"
         d="m 4,71.1 h 2.10714 v -3 h 5.09996 v 3 h 5.0572 v -3 h 5.1 v 3 h 5.0571 v -3 h 5.1 v 3 h 5.0572 v -3 h 5.1 v 3 h 5.0571 v -3 h 5.1 v 3 h 5.0572 v -3 h 5.1 L 64.097648,68.200122 64.1,71.1"
         id="path73"
         sodipodi:nodetypes="cccccccccccccccccccccccccc" />
      <path
         style="fill:none;stroke:#000000;stroke-width:0.02;stroke-dasharray:none;stroke-opacity:1"
         d="m 64.1,71.1 v 2.7125 h 3 v 5.1 h -3 v 5.6625 h 3 v 5.1 h -3 v 5.6625 h 3 v 5.0995 h -3 v 5.663 h 3 v 5.1 h -3 v 5.662 h 3 v 5.1 h -3 v 5.663 h 3 v 5.1 h -3 v 5.662 h 3 v 5.1 h -3 v 2.713"
         id="path74" />
      <path
         style="fill:none;stroke:#000000;stroke-width:0.02;stroke-dasharray:none;stroke-opacity:1"
         d="m 64.1,146.2 h -2.1071 v 3 h -5.1 v -3 h -5.0572 v 3 h -5.1 v -3 h -5.0571 v 3 h -5.1 v -3 h -5.0572 v 3 h -5.1 v -3 h -5.0571 v 3 h -5.1 v -3 h -5.0572 v 3 H 6.10714 v -3 H 4"
         id="path75" />
      <path
         style="fill:none;stroke:#000000;stroke-width:0.02;stroke-dasharray:none;stroke-opacity:1"
         d="m 4,146.2 v -2.713 H 1 v -5.1 h 3 v -5.662 H 1 v -5.1 h 3 v -5.662 H 1 v -5.1 H 4 V 111.2 H 1 v -5.1 h 3 v -5.662 H 1 V 95.3375 H 4 V 89.675 H 1 v -5.1 H 4 V 78.9125 H 1 v -5.1 H 4 V 71.1"
         id="path76" />
    </g>
    <g
       id="panel605" />
    <g
       id="panel8778"
       style="stroke:#000000;stroke-width:0.02;stroke-dasharray:none;stroke-opacity:1">
      <path
         style="fill:none;stroke:#000000;stroke-width:0.02;stroke-dasharray:none;stroke-opacity:1"
         d="m 170.7,68.1 v 5.8125 h -3 v 4.9 h 3 v 5.8625 h -3 v 4.9 h 3 v 5.8625 h -3 v 4.9005 h 3 v 5.862 h -3 v 4.9 h 3 v 5.863 h -3 v 4.9 h 3 v 5.862 h -3 v 4.9 h 3 v 5.863 h -3 v 4.9 h 3 v 5.812"
         id="path96"
         sodipodi:nodetypes="cccccccccccccccccccccccccccccc" />
      <path
         style="fill:none;stroke:#000000;stroke-width:0.02;stroke-dasharray:none;stroke-opacity:1"
         d="m 170.7,149.2 h -5.81 v -3 h -4.9 v 3 h -5.86 v -3 h -4.9 v 3 h -5.86 v -3 h -4.9 v 3 h -5.86 v -3 h -4.9 v 3 h -5.86 v -3 h -4.9 v 3 h -5.86 v -3 h -4.9 v 3 h -5.86 v -3 h -4.9 v 3 h -5.86 v -3 h -4.9 v 3 h -5.86 v -3 h -4.9 v 3 H 68.1"
         id="path97" />
      <path
         style="fill:none;stroke:#000000;stroke-width:0.02;stroke-dasharray:none;stroke-opacity:1"
         d="m 68.1,149.2 v -5.813 h 3 v -4.9 h -3 v -5.862 h 3 v -4.9 h -3 v -5.863 h 3 v -4.9 h -3 V 111.1 h 3 v -4.9 h -3 v -5.863 h 3 v -4.8995 h -3 V 89.575 h 3 v -4.9 h -3 v -5.8625 h 3 v -4.9 h -3 V 68.1"
         id="path98"
         sodipodi:nodetypes="cccccccccccccccccccccccccccccc" />
    </g>
    <g
       id="panel1452"
       style="stroke:#000000;stroke-width:0.02;stroke-dasharray:none;stroke-opacity:1"
       transform="rotate(90,120.89913,33.02902)">
      <path
         style="fill:none;stroke:#000000;stroke-width:0.02;stroke-dasharray:none;stroke-opacity:1"
         d="m 338.39037,71.100127 -1e-5,2.915604 0.01,4.796769 h 3 v 5.8625 h -3 v 4.9 h 3 v 5.8625 h -3 v 4.9005 h 3 v 5.862 h -3 v 4.9 h 3 v 5.863 h -3 v 4.9 h 3 v 5.862 h -3 v 4.9 h 3 v 5.863 h -3 v 4.9 l -0.0402,2.99342"
         id="path104"
         sodipodi:nodetypes="cccccccccccccccccccccccccccc" />
      <path
         style="fill:none;stroke:#000000;stroke-width:0.02;stroke-dasharray:none;stroke-opacity:1"
         d="M 338.34956,146.20658 335.59,146.2 h -4.9 v 3 h -5.86 v -3 h -4.9 v 3 h -5.86 v -3 h -4.9 v 3 h -5.86 v -3 h -4.9 v 3 h -5.86 v -3 h -4.9 v 3 h -5.86 v -3 h -4.9 v 3 h -5.86 v -3 h -4.9 v 3 h -5.86 v -3 h -4.9 v 3 h -5.86 v -3 h -4.9 l -2.77813,-0.0234"
         id="path105"
         sodipodi:nodetypes="cccccccccccccccccccccccccccccccccccc" />
      <path
         style="fill:none;stroke:#000000;stroke-width:0.02;stroke-dasharray:none;stroke-opacity:1"
         d="M 241.77656,146.19819 241.8,143.387 v -4.9 h -3 v -5.862 h 3 v -4.9 h -3 v -5.863 h 3 v -4.9 h -3 V 111.1 h 3 v -4.9 h -3 v -5.863 h 3 v -4.8995 h -3 V 89.575 h 3 v -4.9 h -3 v -5.8625 h 3 v -4.9 l 0.0168,-2.759558"
         id="path106"
         sodipodi:nodetypes="cccccccccccccccccccccccccccc" />
    </g>
    <g
       id="rect110"
       style="stroke:#000000;stroke-width:0.02;stroke-dasharray:none;stroke-opacity:1">
      <path
         style="color:#000000;fill:#000000;stroke:#000000;stroke-width:0.02;stroke-dasharray:none;stroke-opacity:1"
         d="m 83.390625,126.09375 h 72.019535 l -0.0195,-0.0195 H 83.410156 Z"
         id="path111"
         sodipodi:nodetypes="ccccc" />
    </g>
    <rect
       style="fill:#ffffff;fill-opacity:1;stroke:#000000;stroke-width:0.02;stroke-dasharray:none;stroke-opacity:1"
       id="rect111"
       width="2.9104166"
       height="5.6554685"
       x="57.216145"
       y="78.746613" />
    <rect
       style="fill:#ffffff;fill-opacity:1;stroke:#000000;stroke-width:0.02;stroke-dasharray:none;stroke-opacity:1"
       id="rect111-9"
       width="2.9104166"
       height="5.6554685"
       x="57.249218"
       y="89.528389" />
    <rect
       style="fill:#ffffff;fill-opacity:1;stroke:#000000;stroke-width:0.02;stroke-dasharray:none;stroke-opacity:1"
       id="rect111-7"
       width="2.9104166"
       height="5.6554685"
       x="57.216145"
       y="100.21094" />
    <rect
       style="fill:#ffffff;fill-opacity:1;stroke:#000000;stroke-width:0.02;stroke-dasharray:none;stroke-opacity:1"
       id="rect111-1"
       width="2.9104166"
       height="5.6554685"
       x="57.216145"
       y="111.02577" />
    <rect
       style="fill:#ffffff;fill-opacity:1;stroke:#000000;stroke-width:0.02;stroke-dasharray:none;stroke-opacity:1"
       id="rect111-8"
       width="2.9104166"
       height="5.6554685"
       x="57.216145"
       y="121.80755" />
    <rect
       style="fill:#ffffff;fill-opacity:1;stroke:#000000;stroke-width:0.02;stroke-dasharray:none;stroke-opacity:1"
       id="rect111-6"
       width="2.9104166"
       height="5.6554685"
       x="57.216145"
       y="132.58932" />
    <g
       id="panel8355-8"
       transform="matrix(-1,0,0,1,153.99473,-23.541365)"
       style="stroke:#000000;stroke-width:0.02;stroke-dasharray:none;stroke-opacity:1">
      <path
         style="fill:none;stroke:#000000;stroke-width:0.02;stroke-dasharray:none;stroke-opacity:1"
         d="m 4,71.1 h 2.10714 v -3 h 5.09996 v 3 h 5.0572 v -3 h 5.1 v 3 h 5.0571 v -3 h 5.1 v 3 h 5.0572 v -3 h 5.1 v 3 h 5.0571 v -3 h 5.1 v 3 h 5.0572 v -3 h 5.1 L 64.109567,68.057292 64.1,71.1"
         id="path73-1"
         sodipodi:nodetypes="cccccccccccccccccccccccccc" />
      <path
         style="fill:none;stroke:#000000;stroke-width:0.02;stroke-dasharray:none;stroke-opacity:1"
         d="m 64.1,71.1 v 2.7125 h 3 v 5.1 h -3 v 5.6625 h 3 v 5.1 h -3 v 5.6625 h 3 v 5.0995 h -3 v 5.663 h 3 v 5.1 h -3 v 5.662 h 3 v 5.1 h -3 v 5.663 h 3 v 5.1 h -3 v 5.662 h 3 v 5.1 h -3 v 2.713"
         id="path74-9" />
      <path
         style="fill:none;stroke:#000000;stroke-width:0.02;stroke-dasharray:none;stroke-opacity:1"
         d="m 64.1,146.2 h -2.1071 v 3 h -5.1 v -3 h -5.0572 v 3 h -5.1 v -3 h -5.0571 v 3 h -5.1 v -3 h -5.0572 v 3 h -5.1 v -3 h -5.0571 v 3 h -5.1 v -3 h -5.0572 v 3 H 6.10714 v -3 H 4"
         id="path75-5" />
      <path
         style="fill:none;stroke:#000000;stroke-width:0.02;stroke-dasharray:none;stroke-opacity:1"
         d="m 4,146.2 v -2.713 H 1 v -5.1 h 3 v -5.662 H 1 v -5.1 h 3 v -5.662 H 1 v -5.1 H 4 V 111.2 H 1 v -5.1 h 3 v -5.662 H 1 V 95.3375 H 4 V 89.675 H 1 v -5.1 H 4 V 78.9125 H 1 v -5.1 H 4 V 71.1"
         id="path76-1" />
    </g>
    <rect
       style="fill:#ffffff;fill-opacity:1;stroke:#000000;stroke-width:0.02;stroke-dasharray:none;stroke-opacity:1"
       id="rect111-80"
       width="2.9104166"
       height="5.6554685"
       x="-96.778587"
       y="55.205242"
       transform="scale(-1,1)" />
    <rect
       style="fill:#ffffff;fill-opacity:1;stroke:#000000;stroke-width:0.02;stroke-dasharray:none;stroke-opacity:1"
       id="rect111-9-5"
       width="2.9104166"
       height="5.6554685"
       x="-96.745522"
       y="65.987022"
       transform="scale(-1,1)" />
    <rect
       style="fill:#ffffff;fill-opacity:1;stroke:#000000;stroke-width:0.02;stroke-dasharray:none;stroke-opacity:1"
       id="rect111-7-4"
       width="2.9104166"
       height="5.6554685"
       x="-96.778587"
       y="76.669563"
       transform="scale(-1,1)" />
    <rect
       style="fill:#ffffff;fill-opacity:1;stroke:#000000;stroke-width:0.02;stroke-dasharray:none;stroke-opacity:1"
       id="rect111-1-8"
       width="2.9104166"
       height="5.6554685"
       x="-96.778587"
       y="87.484413"
       transform="scale(-1,1)" />
    <rect
       style="fill:#ffffff;fill-opacity:1;stroke:#000000;stroke-width:0.02;stroke-dasharray:none;stroke-opacity:1"
       id="rect111-8-9"
       width="2.9104166"
       height="5.6554685"
       x="-96.778587"
       y="98.266174"
       transform="scale(-1,1)" />
    <rect
       style="fill:#ffffff;fill-opacity:1;stroke:#000000;stroke-width:0.02;stroke-dasharray:none;stroke-opacity:1"
       id="rect111-6-4"
       width="2.9104166"
       height="5.6554685"
       x="-96.778587"
       y="109.04796"
       transform="scale(-1,1)" />
    <rect
       style="fill:#ffffff;fill-opacity:1;stroke:#000000;stroke-width:0.0216624;stroke-dasharray:none;stroke-opacity:1"
       id="rect114"
       width="5.9783378"
       height="3.0245144"
       x="163.46637"
       y="-144.32912"
       transform="rotate(90)" />
    <rect
       style="fill:#ffffff;fill-opacity:1;stroke:#000000;stroke-width:0.0216624;stroke-dasharray:none;stroke-opacity:1"
       id="rect114-6"
       width="5.9783378"
       height="3.0245144"
       x="174.18564"
       y="-144.3291"
       transform="rotate(90)" />
    <rect
       style="fill:#ffffff;fill-opacity:1;stroke:#000000;stroke-width:0.0216624;stroke-dasharray:none;stroke-opacity:1"
       id="rect114-1"
       width="5.9783378"
       height="3.0245144"
       x="184.90489"
       y="-144.32912"
       transform="rotate(90)" />
    <rect
       style="fill:#ffffff;fill-opacity:1;stroke:#000000;stroke-width:0.0216624;stroke-dasharray:none;stroke-opacity:1"
       id="rect114-17"
       width="5.9783378"
       height="3.0245144"
       x="195.60608"
       y="-144.32912"
       transform="rotate(90)" />
    <rect
       style="fill:#ffffff;fill-opacity:1;stroke:#000000;stroke-width:0.0216624;stroke-dasharray:none;stroke-opacity:1"
       id="rect114-5"
       width="5.9783378"
       height="3.0245144"
       x="206.30725"
       y="-144.31259"
       transform="rotate(90)" />
    <rect
       style="fill:#ffffff;fill-opacity:1;stroke:#000000;stroke-width:0.0216624;stroke-dasharray:none;stroke-opacity:1"
       id="rect114-7"
       width="5.9783378"
       height="3.0245144"
       x="217.0446"
       y="-144.32912"
       transform="rotate(90)" />
    <rect
       style="fill:#ffffff;fill-opacity:1;stroke:#000000;stroke-width:0.0216624;stroke-dasharray:none;stroke-opacity:1"
       id="rect114-8"
       width="5.9783378"
       height="3.0245144"
       x="227.74577"
       y="-144.32912"
       transform="rotate(90)" />
    <rect
       style="fill:#ffffff;fill-opacity:1;stroke:#000000;stroke-width:0.0216624;stroke-dasharray:none;stroke-opacity:1"
       id="rect114-2"
       width="5.9783378"
       height="3.0245144"
       x="238.46503"
       y="-144.32912"
       transform="rotate(90)" />
    <path
       style="fill:#ffffff;fill-opacity:1;stroke:#000000;stroke-width:0.02;stroke-miterlimit:4;stroke-dasharray:none;stroke-opacity:1"
       d="m 82.622949,153.95905 0.13229,96.70521"
       id="path114" />
    <circle
       style="fill:#ffffff;fill-opacity:1;stroke:#000000;stroke-width:0.02;stroke-dasharray:none;stroke-opacity:1"
       id="path115"
       cx="179.46974"
       cy="-27.405251"
       transform="rotate(90)"
       r="2.9950082" />
    <circle
       style="fill:#ffffff;fill-opacity:1;stroke:#000000;stroke-width:0.02;stroke-dasharray:none;stroke-opacity:1"
       id="path115-1"
       cx="199.98174"
       cy="-28.073326"
       transform="rotate(90)"
       r="2.7450092" />
    <rect
       style="fill:#ffffff;fill-opacity:1;stroke:#000000;stroke-width:0.02;stroke-dasharray:none;stroke-opacity:1"
       id="rect116"
       width="49.391407"
       height="22.076462"
       x="179.47958"
       y="-63.938522"
       transform="rotate(90)" />
    <text
       xml:space="preserve"
       style="font-size:3.175px;fill:#ffffff;fill-opacity:1;stroke:#000000;stroke-width:0.3;stroke-dasharray:none;stroke-opacity:1"
       x="175.17654"
       y="-18.101776"
       id="text116"
       transform="rotate(90)"><tspan
         sodipodi:role="line"
         style="stroke:#000000;stroke-width:0.3;stroke-dasharray:none;stroke-opacity:1"
         x="175.17654"
         y="-18.101776"
         id="tspan119">6.0 mm </tspan></text>
    <text
       xml:space="preserve"
       style="font-size:3.175px;fill:#ffffff;fill-opacity:1;stroke:#000000;stroke-width:0.3;stroke-miterlimit:4;stroke-dasharray:none;stroke-opacity:1"
       x="196.13046"
       y="-18.475967"
       id="text117"
       transform="rotate(90)"><tspan
         sodipodi:role="line"
         id="tspan117"
         style="stroke:#000000;stroke-width:0.3;stroke-miterlimit:4;stroke-dasharray:none;stroke-opacity:1"
         x="196.13046"
         y="-18.475967">5.5 mm</tspan><tspan
         sodipodi:role="line"
         style="stroke:#000000;stroke-width:0.3;stroke-miterlimit:4;stroke-dasharray:none;stroke-opacity:1"
         x="196.13046"
         y="-14.507217"
         id="tspan118" /></text>
    <rect
       style="fill:#ffffff;fill-opacity:1;stroke:#000000;stroke-width:0.02;stroke-dasharray:none;stroke-opacity:1"
       id="rect120"
       width="16.5"
       height="7.6999998"
       x="218.01988"
       y="-33.068878"
       transform="rotate(90)" />
    <text
       xml:space="preserve"
       style="font-size:3.175px;fill:#ffffff;fill-opacity:1;stroke:#000000;stroke-width:0.3;stroke-miterlimit:4;stroke-dasharray:none;stroke-opacity:1"
       x="216.33607"
       y="-18.288864"
       id="text120"
       transform="rotate(90)"><tspan
         sodipodi:role="line"
         id="tspan120"
         style="stroke:#000000;stroke-width:0.3;stroke-miterlimit:4;stroke-dasharray:none;stroke-opacity:1"
         x="216.33607"
         y="-18.288864">16.5 * 7.7 mm </tspan></text>
    <circle
       style="fill:#ffffff;fill-opacity:1;stroke:#000000;stroke-width:0.02;stroke-dasharray:none;stroke-opacity:1"
       id="path120"
       cx="16.298948"
       cy="134.88058"
       r="5.9950042" />
    <text
       xml:space="preserve"
       style="font-size:3.175px;fill:#ffffff;fill-opacity:1;stroke:#000000;stroke-width:0.3;stroke-miterlimit:4;stroke-dasharray:none;stroke-opacity:1"
       x="10.327483"
       y="124.93991"
       id="text121"><tspan
         sodipodi:role="line"
         id="tspan121"
         style="stroke:#000000;stroke-width:0.3;stroke-miterlimit:4;stroke-dasharray:none;stroke-opacity:1"
         x="10.327483"
         y="124.93991">12  mm</tspan></text>
    <circle
       style="fill:#ffffff;fill-opacity:1;stroke:#000000;stroke-width:0.00915906;stroke-dasharray:none;stroke-opacity:1"
       id="path120-1"
       cx="16.508749"
       cy="89.450012"
       r="5.4954205" />
    <text
       xml:space="preserve"
       style="font-size:3.175px;fill:#ffffff;fill-opacity:1;stroke:#000000;stroke-width:0.3;stroke-miterlimit:4;stroke-dasharray:none;stroke-opacity:1"
       x="11.037287"
       y="78.951004"
       id="text121-8"><tspan
         sodipodi:role="line"
         id="tspan121-7"
         style="stroke:#000000;stroke-width:0.3;stroke-miterlimit:4;stroke-dasharray:none;stroke-opacity:1"
         x="11.037287"
         y="78.951004">11 mm</tspan></text>
    <path
       style="fill:#ffffff;fill-opacity:1;stroke:#000000;stroke-width:0.02;stroke-dasharray:none;stroke-opacity:1"
       d="M 83.254457,68.006732 V 126.09776"
       id="path121" />
    <path
       style="fill:#ffffff;fill-opacity:1;stroke:#000000;stroke-width:0.02;stroke-dasharray:none;stroke-opacity:1"
       d="M 155.37714,126.00422 V 68.100275"
       id="path122" />
    <path
       style="fill:none;fill-opacity:1;stroke:#000000;stroke-width:0.02;stroke-dasharray:none;stroke-opacity:1"
       d="M 68.100275,68.100275 H 83.441544"
       id="path123" />
    <path
       style="fill:#ffffff;fill-opacity:1;stroke:#000000;stroke-width:0.02;stroke-dasharray:none;stroke-opacity:1"
       d="m 155.28359,68.100275 h 15.43482"
       id="path124" />
    <circle
       style="fill:#ffffff;fill-opacity:1;stroke:#000000;stroke-width:0.00957533;stroke-dasharray:none;stroke-opacity:1"
       id="path120-9"
       cx="16.077669"
       cy="111.45273"
       r="5.7452126" />
    <text
       xml:space="preserve"
       style="font-size:3.175px;fill:#ffffff;fill-opacity:1;stroke:#000000;stroke-width:0.3;stroke-miterlimit:4;stroke-dasharray:none;stroke-opacity:1"
       x="9.5624533"
       y="101.76205"
       id="text121-4"><tspan
         sodipodi:role="line"
         id="tspan121-72"
         style="stroke:#000000;stroke-width:0.3;stroke-miterlimit:4;stroke-dasharray:none;stroke-opacity:1"
         x="9.5624533"
         y="101.76205">11,5  mm</tspan></text>
    <text
       xml:space="preserve"
       transform="matrix(0.26458333,0,0,0.26458333,-3.175,-11.90625)"
       id="text49245"
       style="white-space:pre;shape-inside:url(#rect49247);display:inline;fill:none;stroke:#000000;stroke-width:1.13386;stroke-miterlimit:4;stroke-dasharray:none;stroke-opacity:1"><tspan
         x="119"
         y="368.94796"
         id="tspan1">proto pe 19.4.</tspan></text>
    <text
       xml:space="preserve"
       transform="matrix(0.26458333,0,0,0.26458333,52.568368,43.547214)"
       id="text49245-3"
       style="white-space:pre;shape-inside:url(#rect49247-9);display:inline;fill:none;stroke:#000000;stroke-width:1.13386;stroke-miterlimit:4;stroke-dasharray:none;stroke-opacity:1"><tspan
         x="119"
         y="368.94796"
         id="tspan2">proto pe 19.4.</tspan></text>
    <text
       xml:space="preserve"
       transform="matrix(0.26458333,0,0,0.26458333,78.762118,-13.602786)"
       id="text49245-2"
       style="white-space:pre;shape-inside:url(#rect49247-2);display:inline;fill:none;stroke:#000000;stroke-width:1.13386;stroke-miterlimit:4;stroke-dasharray:none;stroke-opacity:1"><tspan
         x="119"
         y="368.94796"
         id="tspan3">proto pe 19.4.</tspan></text>
    <text
       xml:space="preserve"
       transform="matrix(0.26458333,0,0,0.26458333,67.385035,81.647214)"
       id="text49245-28"
       style="white-space:pre;shape-inside:url(#rect49247-4);display:inline;fill:none;stroke:#000000;stroke-width:1.13386;stroke-miterlimit:4;stroke-dasharray:none;stroke-opacity:1"><tspan
         x="119"
         y="368.94796"
         id="tspan4">proto pe 19.4.</tspan></text>
    <text
       xml:space="preserve"
       transform="matrix(0.26458333,0,0,0.26458333,-6.6982986,69.476381)"
       id="text49245-1"
       style="white-space:pre;shape-inside:url(#rect49247-22);display:inline;fill:none;stroke:#000000;stroke-width:1.13386;stroke-miterlimit:4;stroke-dasharray:none;stroke-opacity:1"><tspan
         x="119"
         y="368.94796"
         id="tspan5">proto pe 19.4.</tspan></text>
    <circle
       style="fill:#ffffff;fill-opacity:1;stroke:#000000;stroke-width:0.0090744;stroke-dasharray:none;stroke-opacity:1"
       id="path115-1-3"
       cx="164.64233"
       cy="-63.149906"
       transform="rotate(90)"
       r="2.4954629" />
    <text
       xml:space="preserve"
       style="font-size:3.175px;fill:#ffffff;fill-opacity:1;stroke:#000000;stroke-width:0.3;stroke-miterlimit:4;stroke-dasharray:none;stroke-opacity:1"
       x="161.04106"
       y="-53.802551"
       id="text117-6"
       transform="rotate(90)"><tspan
         sodipodi:role="line"
         style="stroke:#000000;stroke-width:0.3;stroke-miterlimit:4;stroke-dasharray:none;stroke-opacity:1"
         x="161.04106"
         y="-53.802551"
         id="tspan53299">5 mm</tspan><tspan
         sodipodi:role="line"
         style="stroke:#000000;stroke-width:0.3;stroke-miterlimit:4;stroke-dasharray:none;stroke-opacity:1"
         x="161.04106"
         y="-49.833801"
         id="tspan118-1" /></text>
    <circle
       style="fill:#ffffff;fill-opacity:1;stroke:#000000;stroke-width:0.00998334;stroke-dasharray:none;stroke-opacity:1"
       id="path115-2"
       cx="98.866493"
       cy="-43.201298"
       transform="rotate(90)"
       r="2.9950082" />
    <text
       xml:space="preserve"
       style="font-size:3.175px;fill:#ffffff;fill-opacity:1;stroke:#000000;stroke-width:0.3;stroke-dasharray:none;stroke-opacity:1"
       x="94.573296"
       y="-33.897823"
       id="text116-8"
       transform="rotate(90)"><tspan
         sodipodi:role="line"
         style="stroke:#000000;stroke-width:0.3;stroke-dasharray:none;stroke-opacity:1"
         x="94.573296"
         y="-33.897823"
         id="tspan119-7">6.0 mm </tspan></text>
  </g>
</svg>
